<svg version="1.2" xmlns="http://www.w3.org/2000/svg" viewBox="0 0 55 55" width="55" height="55">
	<title>activity-nimgame-svg</title>
	<style>
		.s0 { fill: none;stroke: #000000;stroke-linecap: round;stroke-linejoin: round;stroke-width: .9 } 
		.s1 { fill: none;stroke: #000000;stroke-linecap: round;stroke-width: .9 } 
	</style>
	<g id="SVGRepo_bgCarrier">
	</g>
	<g id="SVGRepo_tracerCarrier">
	</g>
	<g id="SVGRepo_iconCarrier">
		<path id="Layer" fill-rule="evenodd" class="s0" d="m27.5 41.9c-0.1 0.7-1.5 4-4.2 4.1-4.5 0.1-3.4-3-7.1-5.7-3.7-2.6-3.4-4.5-3.7-6.7"/>
		<path id="Layer" fill-rule="evenodd" class="s0" d="m13.8 35c-2.6-1.3-3.1-7.9-1.1-6.9 0 0-1.8-6.4 1.6-8.1"/>
		<path id="Layer" fill-rule="evenodd" class="s0" d="m15.5 22.9c0 0-3.1-5.5 1.3-8.2"/>
		<path id="Layer" fill-rule="evenodd" class="s0" d="m17 16.5c0-0.2-1.4-5 3.7-5.8"/>
		<path id="Layer" fill-rule="evenodd" class="s0" d="m20.4 11.7c0 0 2.2-5.7 7.1-0.5"/>
		<path id="Layer" fill-rule="evenodd" class="s0" d="m23.3 43.4c-0.9 0-2.7 0.3-4.9-3.9"/>
		<path id="Layer" fill-rule="evenodd" class="s0" d="m22.5 38.4q0.5 0.1 1 0.3 0.5 0.3 0.8 0.6 0.4 0.4 0.7 0.9 0.2 0.4 0.3 0.9"/>
		<path id="Layer" fill-rule="evenodd" class="s0" d="m17.5 35.2q-0.6-0.3-1-0.8-0.5-0.5-0.8-1.1-0.3-0.5-0.4-1.2-0.2-0.6-0.1-1.2c0.2-2.9-0.8-4-0.8-4"/>
		<path id="Layer" fill-rule="evenodd" class="s0" d="m17.7 26c0 0 1.6-0.2 2.2 2.3q0.1 0.3 0.4 0.6 0.2 0.3 0.6 0.4 0.4 0.1 0.7 0.1 0.4-0.1 0.7-0.4"/>
		<path id="Layer" fill-rule="evenodd" class="s0" d="m23 26.7c0 0 1.8 0.3 2.2-1"/>
		<path id="Layer" fill-rule="evenodd" class="s0" d="m20.5 25.2q0-0.4 0-0.9 0-0.5 0-0.9-0.1-0.5-0.2-1-0.2-0.4-0.4-0.8c-0.8-1.6 0.4-4.1 0.4-4.1"/>
		<path id="Layer" fill-rule="evenodd" class="s0" d="m22.3 16.6c0 0-2.7-1.7 0.4-4.4"/>
		<path id="Layer" fill-rule="evenodd" class="s0" d="m23.7 14.5c0.5 2.5 1.2 5-0.3 8.8"/>
		<path id="Layer" fill-rule="evenodd" class="s0" d="m17.9 37.4c0.1 0 4.3 0.1 2.8-3.4-1.5-3.5-2.7-2.9-3.1-6.3"/>
		<path id="Layer" fill-rule="evenodd" class="s0" d="m24.7 33.9c0 0-1.3 1.8-4.4-0.8"/>
		<path id="Layer" fill-rule="evenodd" class="s0" d="m27.5 41.9c0.1 0.7 1.5 4 4.2 4.1 4.5 0.1 3.4-3 7.1-5.7 3.7-2.6 3.4-4.5 3.7-6.7"/>
		<path id="Layer" fill-rule="evenodd" class="s0" d="m41.2 35c2.6-1.3 3.1-7.9 1.1-6.9 0 0 1.8-6.4-1.6-8.1"/>
		<path id="Layer" fill-rule="evenodd" class="s0" d="m39.5 22.9c0 0 3.1-5.5-1.3-8.2"/>
		<path id="Layer" fill-rule="evenodd" class="s0" d="m38 16.5c0-0.2 1.4-5-3.7-5.8"/>
		<path id="Layer" fill-rule="evenodd" class="s0" d="m34.6 11.7c0 0-2.2-5.7-7.1-0.5"/>
		<path id="Layer" fill-rule="evenodd" class="s0" d="m31.7 43.4c0.9 0 2.7 0.3 4.9-3.9"/>
		<path id="Layer" fill-rule="evenodd" class="s0" d="m32.5 38.4q-0.5 0.1-1 0.3-0.5 0.3-0.8 0.6-0.4 0.4-0.7 0.9-0.2 0.4-0.3 0.9"/>
		<path id="Layer" fill-rule="evenodd" class="s0" d="m37.5 35.2q0.6-0.3 1-0.8 0.5-0.5 0.8-1.1 0.3-0.5 0.4-1.2 0.2-0.6 0.1-1.2c-0.2-2.9 0.8-4 0.8-4"/>
		<path id="Layer" fill-rule="evenodd" class="s0" d="m37.3 26c0 0-1.6-0.2-2.2 2.3q-0.1 0.3-0.4 0.6-0.2 0.3-0.6 0.4-0.4 0.1-0.7 0.1-0.4-0.1-0.7-0.4"/>
		<path id="Layer" fill-rule="evenodd" class="s0" d="m32 26.7c0 0-1.8 0.3-2.2-1"/>
		<path id="Layer" fill-rule="evenodd" class="s0" d="m34.5 25.2q0-0.4 0-0.9 0-0.5 0-0.9 0.1-0.5 0.2-1 0.2-0.4 0.4-0.8c0.8-1.6-0.4-4.1-0.4-4.1"/>
		<path id="Layer" fill-rule="evenodd" class="s0" d="m32.7 16.6c0 0 2.7-1.7-0.4-4.4"/>
		<path id="Layer" fill-rule="evenodd" class="s0" d="m31.3 14.5c-0.5 2.5-1.2 5 0.3 8.8"/>
		<path id="Layer" fill-rule="evenodd" class="s0" d="m37.1 37.4c-0.1 0-4.3 0.1-2.8-3.4 1.5-3.5 2.7-2.9 3.1-6.3"/>
		<path id="Layer" fill-rule="evenodd" class="s0" d="m30.3 33.9c0 0 1.3 1.8 4.4-0.8"/>
		<path id="Layer" fill-rule="evenodd" class="s1" d="m27.5 41.9v-30.7"/>
	</g>
</svg>